<svg xmlns="http://www.w3.org/2000/svg" width="64" height="64" fill="none" viewBox="0 0 64 64"
     class="jetbrains-logo _size-2">
    <defs>
        <linearGradient id="__JETBRAINS_COM__LOGO_PREFIX__20" x1="59.932" x2="1.337" y1="59.676" y2="1.079"
                        gradientUnits="userSpaceOnUse">
            <stop offset="0.29" stop-color="#6B57FF"/>
            <stop offset="0.89" stop-color="#07C3F2"/>
        </linearGradient>
        <linearGradient id="__JETBRAINS_COM__LOGO_PREFIX__19" x1="7.671" x2="61.126" y1="64.392" y2="39.609"
                        gradientUnits="userSpaceOnUse">
            <stop offset="0.3" stop-color="#FF45ED"/>
            <stop offset="0.84" stop-color="#6B57FF"/>
        </linearGradient>
    </defs>
    <path fill="url(#__JETBRAINS_COM__LOGO_PREFIX__20)"
          d="M0 4.125v34.127c0 1.659.993 3.155 2.52 3.8L39.943 57.85c.518.219 1.075.33 1.638.324l18.329-.15A4.125 4.125 0 0 0 64 53.9V36.234c0-.806-.236-1.593-.678-2.267L42.213 1.86A4.125 4.125 0 0 0 38.766 0H4.125A4.125 4.125 0 0 0 0 4.125Z"/>
    <path fill="url(#__JETBRAINS_COM__LOGO_PREFIX__19)"
          d="M6 49.015v10.862a4.125 4.125 0 0 0 4.125 4.125h12.566c.2 0 .4-.014.598-.044l37.185-5.448A4.125 4.125 0 0 0 64 54.429V39.03a4.125 4.125 0 0 0-4.127-4.125l-18.504.005c-.426 0-.849.066-1.254.195l-31.244 9.98A4.126 4.126 0 0 0 6 49.015Z"/>
    <path fill="#FF45ED"
          d="M6 47.55v12.259a4.125 4.125 0 0 0 4.19 4.124L21 64c1.18-.019 2.531-.786 3.3-1.683l32.707-38.158c.64-.748.993-1.7.993-2.685V10.125A4.125 4.125 0 0 0 53.875 6H42.872c-1.19 0-2.321.514-3.105 1.409L7.021 44.834A4.123 4.123 0 0 0 6 47.55Z"/>
    <path fill="#000" d="M52 12H12v40h40V12Z"/>
    <path fill="#fff"
          d="M33 44H17v3h16v-3ZM17.012 16.992h5.713c1.422 0 2.696.321 3.821.965a6.882 6.882 0 0 1 2.642 2.674c.636 1.14.954 2.427.954 3.864 0 1.437-.318 2.725-.954 3.865a6.891 6.891 0 0 1-2.642 2.674c-1.125.643-2.4.964-3.821.964h-5.713V16.992Zm8.028 11.876c.672-.4 1.19-.973 1.554-1.72.365-.747.547-1.63.547-2.653 0-1.023-.182-1.907-.547-2.653-.364-.747-.882-1.32-1.554-1.721-.672-.4-1.454-.6-2.348-.6h-2.755v9.947h2.755c.893 0 1.676-.2 2.348-.6Zm7.664-11.876h6.442c1.057 0 1.984.193 2.78.579.798.386 1.412.929 1.845 1.63.432.7.648 1.51.648 2.432 0 .922-.22 1.759-.659 2.466s-1.063 1.256-1.87 1.646c-.808.39-1.751.584-2.83.584h-3.43V32h-2.927V16.993Zm7.54 6.63c.368-.182.652-.443.852-.782.2-.34.3-.738.3-1.195s-.1-.842-.3-1.174a2.01 2.01 0 0 0-.852-.772c-.368-.182-.798-.273-1.292-.273H35.63v4.47h3.324c.493 0 .923-.091 1.291-.273Z"/>
</svg>